<svg width="83" height="42" viewBox="0 0 83 42" fill="none" xmlns="http://www.w3.org/2000/svg">
<g clip-path="url(#clip0_22_62)">
<path fill-rule="evenodd" clip-rule="evenodd" d="M65.5281 10.6685C65.5281 15.5452 61.8667 20.0829 55.6658 22.3939C59.3561 28.0686 64.4539 34.7739 70.0422 42H57.3173C53.0179 35.1787 47.3207 27.096 42.6861 21.248C48.8982 19.8425 53.9571 17.2015 53.9571 12.1052C53.9571 8.38234 51.3623 5.53134 45.1004 5.53134C43.7549 5.53134 42.5299 5.58116 41.4192 5.62633C40.4979 5.66379 39.6553 5.69808 38.8874 5.69808C38.7131 10.7222 38.6604 15.953 38.6604 21.1599C38.6604 27.3721 38.9468 33.5776 39.2186 39.4646C39.2578 40.3166 39.2969 41.1621 39.3348 42H30.1143C23.2612 32.2233 15.8487 22.8641 7.91504 13.9707C7.81246 21.2721 7.9837 32.055 8.76763 42H0C0.0374909 41.1601 0.076199 40.3125 0.115213 39.4584C0.38399 33.5733 0.667303 27.37 0.667303 21.1599C0.667303 14.9484 0.383102 8.73583 0.113951 2.85224C0.0753641 2.00873 0.0370865 1.17199 0 0.342979H10.5778C16.9184 9.38226 23.74 18.0634 31.0118 26.3474C31.0757 19.179 30.8541 9.39602 30.1395 0.342979C32.8302 0.394633 36.2192 0.291846 39.7214 0.185625C42.7395 0.0940884 45.8417 0 48.6537 0C54.5284 0 59.6921 0.480011 62.9466 3.78854C64.6629 5.5274 65.5281 7.85195 65.5281 10.6685ZM70.8204 0.777778H82.4941C82.4572 1.53148 82.4193 2.29165 82.3811 3.05753C82.0875 8.9398 81.7771 15.1592 81.7771 21.3775C81.7771 27.5939 82.0865 33.8036 82.3796 39.6873C82.4184 40.4642 82.4567 41.2353 82.4941 42H70.8204C70.8683 40.9902 70.9187 39.9692 70.9694 38.9386C71.248 33.2781 71.5409 27.3309 71.5409 21.3775C71.5409 15.4235 71.2472 9.46845 70.9682 3.80932C70.9178 2.78859 70.868 1.7775 70.8204 0.777778Z" fill="#005CAB"/>
</g>
<defs>
<clipPath id="clip0_22_62">
<rect width="83" height="42" fill="white"/>
</clipPath>
</defs>
</svg>
