<svg width="164" height="60" viewBox="0 0 164 60" fill="none" xmlns="http://www.w3.org/2000/svg">
<g clip-path="url(#clip0_21_2)">
<mask id="mask0_21_2" style="mask-type:luminance" maskUnits="userSpaceOnUse" x="0" y="0" width="164" height="60">
<path d="M164 0H0V59.4374H164V0Z" fill="white"/>
</mask>
<g mask="url(#mask0_21_2)">
<path d="M36.0606 2.18211C37.6019 2.96845 39.0661 3.89694 40.4339 4.9554C43.1063 7.08822 45.1522 9.90052 46.3561 13.096C46.9458 14.3305 47.3595 15.6412 47.5855 16.99C47.9538 18.819 48.1885 20.6724 48.2877 22.5354C48.4858 25.1719 48.3888 27.8222 47.9986 30.4372C47.8923 31.2707 47.73 32.096 47.5126 32.9077C47.3737 33.3015 47.2891 33.7123 47.2611 34.1289C46.8967 35.5283 46.4958 36.9264 46.2699 38.3512C46.1192 38.9692 45.9808 39.6113 45.8313 40.2414C45.6692 40.7258 45.4806 41.201 45.2664 41.6649C45.1612 42.1328 44.9979 42.5858 44.7805 43.0134C44.6991 43.4058 44.5594 43.784 44.3663 44.1353C44.0771 45.004 43.7261 45.8619 43.3884 46.7184C43.2875 46.882 43.2377 47.0589 43.1454 47.2091C42.5562 48.4824 41.803 49.6164 41.2381 50.8886C40.982 51.6965 40.5824 52.452 40.0585 53.1191C39.5188 53.711 38.9405 54.2667 38.3274 54.7827C38.2144 54.7451 38.1902 54.8711 38.1646 54.9341C38.014 55.0347 37.901 55.2745 37.6787 55.2236C37.6339 55.313 37.5685 55.3904 37.4878 55.4496C37.4071 55.5088 37.3135 55.548 37.2146 55.5641C37.0761 55.6852 36.8879 55.7156 36.7506 55.867C36.4748 55.9676 36.2355 56.1941 35.9598 56.2837C35.5334 56.4728 35.0814 56.6109 34.6672 56.8132C34.4157 56.6497 34.3404 57.0652 34.0598 57.0155L33.9845 57.0907C34.0099 57.1282 34.0598 57.1537 34.0598 57.1912C33.2811 57.0144 32.8559 57.8589 32.2023 58.1497C31.5668 58.568 30.8476 58.8433 30.0946 58.9564C29.738 59.0632 29.3718 59.135 29.0013 59.171C25.4504 59.549 21.5617 59.7259 18.3996 58.3144C14.2441 56.7145 10.7816 53.7138 8.61304 49.8334C6.94509 46.4943 6.74345 42.2598 7.09576 38.3779C7.14107 38.0281 7.0875 37.6726 6.94113 37.3515C6.79474 37.0304 6.56134 36.7565 6.26724 36.5606C5.7145 36.145 4.96253 36.2322 4.4353 35.7791C3.66957 35.5419 2.93938 35.2028 2.26443 34.7711C1.74931 34.4558 1.30505 34.0378 0.9595 33.5432C0.613949 33.0487 0.374562 32.4883 0.256341 31.8972C-0.332844 29.9817 0.20653 27.899 0.482293 26.038C1.52423 21.9493 2.91333 17.9565 4.63453 14.1028C6.09894 10.3714 8.37414 7.00981 11.2966 4.25995C11.8448 3.85026 12.3456 3.38091 12.7896 2.86059L12.8649 2.61829C13.2575 2.4594 13.6642 2.33769 14.0797 2.2548C14.2935 1.9519 14.4563 2.39416 14.7321 2.28027C14.8827 2.31904 14.7697 2.52256 14.9082 2.59526C16.6432 1.67003 18.4903 0.971272 20.404 0.516193C23.3551 -0.0547801 26.377 -0.165539 29.3621 0.187861C31.7 0.430691 33.9718 1.10704 36.0606 2.18211ZM25.4213 2.83759C23.7094 2.75367 21.995 2.93637 20.3397 3.37915C19.4441 3.56169 18.5633 3.81036 17.7047 4.12308C17.3913 4.23575 17.0901 4.33629 16.7766 4.43806C16.1498 4.74096 15.4974 4.94209 14.8694 5.24499C14.1793 5.34554 14.0542 6.20333 13.476 6.51835C13.3019 6.81499 13.0984 7.09347 12.8686 7.3495C12.5673 7.5385 12.4543 7.92986 12.1785 8.1685C11.8894 8.58407 11.6513 9.06263 11.35 9.49156C10.9554 10.0751 10.627 10.7004 10.3709 11.3562C10.0577 11.9375 9.79753 12.5458 9.59342 13.1735C9.34195 13.5515 9.34195 14.0301 9.0285 14.3705C8.66408 15.2017 8.29959 16.0474 7.94973 16.8919C7.76147 17.3075 7.5987 17.7485 7.37272 18.1519C7.22211 18.8957 6.83336 19.5258 6.65719 20.2576C5.5882 22.5875 4.78856 25.0313 4.27373 27.5416C4.07735 28.5508 3.97648 29.5764 3.97246 30.6045C4.00221 30.9114 4.11314 31.2049 4.29393 31.455C4.47472 31.7051 4.71886 31.9029 5.0014 32.028C6.31827 32.6835 7.73598 33.1124 9.0285 33.8454C10.2484 34.5491 11.1544 35.6891 11.5626 37.0343C11.8088 38.253 11.8848 39.4998 11.7886 40.7393C11.3971 43.5532 11.8742 46.4194 13.1565 48.9562C15.1773 52.044 18.1654 54.3783 21.6553 55.5956C23.3998 56.2886 25.4698 55.9991 27.3515 56.0366C27.685 56.0216 28.009 55.9219 28.293 55.7471C28.7328 55.5701 29.096 55.3691 29.548 55.2309L29.5237 55.2055C29.5237 55.1546 29.5735 55.1304 29.599 55.1049C29.6986 55.0541 29.6864 55.1801 29.7617 55.1558C30.0995 55.0449 30.408 54.8598 30.6643 54.6142C31.6148 54.174 32.5149 53.633 33.3491 53.0004C35.3075 51.6715 36.8623 49.8316 37.8439 47.6816C39.4963 44.7007 40.8785 41.5785 41.9743 38.3525C42.476 36.8283 42.6266 35.1515 43.1283 33.6273C43.6058 30.98 44.5084 28.4975 44.4453 25.6249C44.4075 21.176 44.1816 16.7404 42.3873 12.9978C41.2611 10.337 39.3987 8.05095 37.0178 6.40687C35.3668 5.33671 33.6178 4.42519 31.7942 3.68449C30.6233 3.33779 29.4215 3.10566 28.2056 2.99144C27.3273 2.89936 26.336 2.84849 25.4213 2.83759ZM27.0005 6.51713C25.1757 6.66372 23.3829 7.07984 21.6808 7.7517C21.1536 7.95284 20.7272 8.4072 20.1623 8.50777L20.2619 8.58291L20.0736 8.87241C20.1489 8.99356 20.1489 9.08691 20.2874 9.16204C20.2376 9.17411 20.2619 9.22504 20.2619 9.26261H20.3373C20.387 9.50486 20.0615 9.61511 19.923 9.77868C19.9728 9.99318 19.6593 10.0562 19.6338 10.2706C19.6096 10.3918 19.7553 10.422 19.8222 10.4729C19.6849 10.5941 19.646 10.7879 19.5585 10.8885L19.8015 10.8134C19.827 10.9648 20.0651 10.8388 20.053 11.0278L20.2158 11.0023C20.517 10.8643 20.8304 10.8388 21.1195 10.6874C21.5459 10.5226 22.0477 10.548 22.4874 10.3978C23.3536 10.1555 24.1688 10.0453 25.0385 9.80534C27.7731 9.02391 30.1699 10.4984 32.0638 12.4526C32.7377 13.3365 33.4983 14.151 34.3343 14.8843C34.5093 14.871 34.7862 15.1617 34.8494 14.8334C34.9247 14.8455 35.0742 14.808 35.1628 14.8588L35.1884 14.5438C35.3511 14.6068 35.4641 14.3548 35.6524 14.3923C35.7277 14.1149 36.0666 14.2155 36.2173 14.0762C36.0788 14.0252 36.1165 13.8495 36.0411 13.749C36.2416 13.6351 36.3169 13.9914 36.5271 14.001C36.5069 13.8512 36.4732 13.7037 36.4262 13.56C36.4518 13.4219 36.5769 13.2705 36.7275 13.3335L36.7032 13.0693C37.0422 12.804 36.6024 12.5398 36.6024 12.2624C36.5769 12.1607 36.3886 12.1231 36.4518 11.985C35.5737 10.7662 34.5114 9.69045 33.303 8.79611C31.4992 7.38618 29.2911 6.58768 27.0005 6.51713ZM28.4692 14.4433C28.0671 14.3561 27.7039 13.9393 27.2775 14.1028C27.2264 14.2918 27.0138 14.1791 26.8632 14.2167C26.4866 13.8532 26.4745 14.545 26.0979 14.4178C25.5277 14.6254 25.024 14.9824 24.6401 15.4513C24.7352 15.4821 24.8243 15.5288 24.9037 15.5894C24.7732 15.7515 24.6258 15.8994 24.464 16.0304C24.5635 16.1055 24.5769 16.2315 24.6146 16.3333C24.3011 16.4848 24.351 16.8628 24.0497 17.0396C23.9501 17.4431 24.4008 17.6818 24.464 18.0477C24.4142 18.0973 24.3425 18.0731 24.2878 18.0731C24.2623 18.1482 24.3498 18.1737 24.3874 18.2367C24.9025 18.3881 25.2657 18.8788 25.8051 18.9552C26.2691 19.0303 26.947 19.4083 27.2981 18.9297C27.5496 18.9164 27.3358 18.5759 27.5872 18.5662C27.7634 18.4912 27.7002 18.2888 27.8509 18.1762C28.0015 18.0635 27.8509 17.8127 28.0768 17.6588L28.0525 17.6334C28.2153 17.5704 28.0647 17.3692 28.174 17.2699C28.2934 17.0693 28.4511 16.8939 28.6381 16.7537C28.813 16.8676 28.813 16.5902 28.9515 16.5768C28.9607 16.4174 29.0328 16.268 29.1519 16.1613C29.1519 16.1104 29.1774 16.0607 29.1277 16.0402C29.1653 15.9771 29.1519 15.8632 29.2649 15.8765C29.3523 15.65 29.1896 15.4731 29.1277 15.2841C29.0271 14.9286 28.7907 14.6267 28.4692 14.4433ZM30.9158 37.4632C30.5835 37.6632 30.24 37.844 29.8869 38.0047C28.8182 38.9936 27.5403 39.7303 26.1477 40.1602C23.8012 40.8785 21.2927 40.8785 18.9463 40.1602C18.0404 39.8229 17.0774 39.6645 16.1109 39.6937C16.123 39.7191 16.1741 39.7312 16.1607 39.7688C15.7841 40.0462 15.2326 39.9324 14.9192 40.3104C15.4464 40.4485 14.6932 40.4739 14.8195 40.7514C14.5681 40.8641 14.8815 41.1294 14.6312 41.2929L15.5849 41.9739C17.8794 43.4117 20.5407 44.16 23.2504 44.1293C23.9747 44.1009 24.6939 43.9953 25.3957 43.8142C25.7346 43.8009 25.9472 43.5247 26.2996 43.5489C27.0123 43.283 27.6838 42.9179 28.2943 42.4646C29.3365 41.7596 30.3263 40.9806 31.256 40.1335L31.1807 40.0584C31.1807 39.9372 31.03 39.7688 31.2305 39.6949C31.2305 39.6064 31.352 39.4926 31.2062 39.4296C31.3277 39.3084 31.1807 39.1521 31.2305 38.9885C31.256 38.7862 31.0045 38.762 30.8915 38.6615C30.8405 38.4967 30.979 38.3331 31.0798 38.2459L30.9669 38.1829C30.9362 38.058 30.9451 37.9269 30.9923 37.8073C31.0396 37.6877 31.1227 37.5857 31.2305 37.5153C31.092 37.5819 31.0543 37.4051 30.9158 37.4681V37.4632Z" fill="#8DB54B"/>
<path d="M59.3701 48.2739H60.0504V51.5876H62.0269V52.1776H59.3701V48.2739Z" fill="#8DB54B"/>
<path d="M63.5215 48.2739H64.2079V52.1788H63.5276L63.5215 48.2739Z" fill="#8DB54B"/>
<path d="M65.8357 48.2739H68.5192V48.864H66.5148V49.7884H68.5179V50.3796H66.5148V52.1776H65.8345L65.8357 48.2739Z" fill="#8DB54B"/>
<path d="M69.8066 48.2739H72.4915V48.864H70.4886V49.7884H72.4915V50.3796H70.4886V51.5912H72.4915V52.1812H69.8066V48.2739Z" fill="#8DB54B"/>
<path d="M78.4854 48.2739H81.1702V48.864H79.1666V49.7884H81.1749V50.3796H79.1714V51.5912H81.1749V52.1812H78.4901L78.4854 48.2739Z" fill="#8DB54B"/>
<path d="M123.323 48.2739H125.996V48.864H123.992V49.7884H125.996V50.3796H123.992V51.5912H125.996V52.1812H123.323V48.2739Z" fill="#8DB54B"/>
<path d="M82.2358 48.2739H85.3819V48.864H84.1464V52.1776H83.4665V48.864H82.2358V48.2739Z" fill="#8DB54B"/>
<path d="M90.0732 48.2739H90.7538V52.1788H90.0732V48.2739Z" fill="#8DB54B"/>
<path d="M92.2725 48.2739H92.9906L94.7653 51.1502H94.7762V48.2739H95.4247V52.1788H94.7058L92.9367 49.3074H92.9209V52.1788H92.2738L92.2725 48.2739Z" fill="#8DB54B"/>
<path d="M97.3296 50.8777C97.3296 51.4834 97.7704 51.7136 98.315 51.7136C98.9136 51.7136 99.137 51.4192 99.137 51.1235C99.1466 51.0184 99.1206 50.9132 99.0619 50.825C99.0038 50.737 98.917 50.6713 98.8166 50.6389C98.5446 50.5347 98.1893 50.4645 97.6563 50.3167C97.4164 50.2845 97.1971 50.1661 97.0385 49.9839C96.88 49.8016 96.7939 49.568 96.7959 49.3268C96.7959 48.5453 97.5155 48.1782 98.2173 48.1782C99.0277 48.1782 99.709 48.6108 99.709 49.4249H99.0291C98.9963 48.9221 98.6649 48.7355 98.1906 48.7355C97.8749 48.7355 97.4779 48.8495 97.4779 49.2444C97.4779 49.5182 97.6638 49.6709 97.9405 49.7472C98 49.763 98.8603 49.9895 99.0619 50.0476C99.2799 50.1082 99.4712 50.2383 99.6079 50.418C99.7445 50.5976 99.819 50.8169 99.8183 51.0424C99.8183 51.9172 99.0448 52.2673 98.2719 52.2673C97.3843 52.2673 96.6661 51.8408 96.6504 50.8728L97.3296 50.8777Z" fill="#8DB54B"/>
<path d="M100.937 48.2739H101.617V50.5481C101.617 51.1539 101.815 51.6809 102.531 51.6809C103.248 51.6809 103.446 51.1562 103.446 50.5481V48.2739H104.126V50.7116C104.126 51.1335 103.959 51.5381 103.66 51.8365C103.36 52.1348 102.954 52.3024 102.531 52.3024C102.108 52.3024 101.703 52.1348 101.404 51.8365C101.105 51.5381 100.937 51.1335 100.937 50.7116V48.2739Z" fill="#8DB54B"/>
<path d="M112.59 52.1788H113.319L111.823 48.2739H111.094L109.601 52.1788H110.304L111.442 48.9463H111.458L112.59 52.1788Z" fill="#8DB54B"/>
<path d="M114.245 48.2739H114.909L116.739 51.0266H116.749V48.2739H117.397V52.1788H116.739L114.909 49.4188H114.894V52.1788H114.245V48.2739Z" fill="#8DB54B"/>
<path d="M73.9141 48.2739H74.5789L76.4082 51.0266H76.4192V48.2739H77.0676V52.1788H76.4096L74.5796 49.4188H74.5639V52.1788H73.9154L73.9141 48.2739Z" fill="#8DB54B"/>
<path d="M152.911 48.2739H153.576L155.405 51.0266H155.416V48.2739H156.064V52.1788H155.405L153.576 49.4201H153.558V52.1788H152.911V48.2739Z" fill="#8DB54B"/>
<path d="M136.637 48.7367C137.469 48.7367 137.818 49.4745 137.818 50.2245C137.818 50.9745 137.469 51.7123 136.637 51.7123C135.803 51.7123 135.456 50.9745 135.456 50.2245C135.456 49.4745 135.801 48.7367 136.637 48.7367ZM136.637 48.1782C136.221 48.1373 135.803 48.2228 135.437 48.4234C135.072 48.6241 134.776 48.9305 134.589 49.3022C134.401 49.674 134.331 50.0937 134.387 50.506C134.444 50.9183 134.623 51.304 134.904 51.6121C135.184 51.9203 135.552 52.1365 135.958 52.2323C136.364 52.328 136.79 52.2988 137.179 52.1486C137.568 51.9984 137.902 51.7342 138.138 51.3907C138.374 51.0472 138.499 50.6406 138.499 50.2245C138.521 49.9661 138.49 49.7059 138.406 49.4602C138.323 49.2145 138.19 48.9886 138.015 48.7967C137.841 48.6047 137.627 48.4509 137.39 48.3449C137.153 48.2389 136.896 48.1829 136.637 48.1805V48.1782Z" fill="#8DB54B"/>
<path d="M139.567 48.2739H140.526L141.599 51.0835H141.608L142.654 48.2739H143.601V52.1788H142.954V49.3206H142.942L141.864 52.1788H141.303L140.226 49.3206H140.214V52.1788H139.566L139.567 48.2739Z" fill="#8DB54B"/>
<path d="M158.453 50.3845L156.995 48.2776H157.785L158.814 49.7605L159.827 48.2776H160.59L159.132 50.3845V52.1825H158.452L158.453 50.3845Z" fill="#8DB54B"/>
<path d="M112.354 50.3809H110.55L110.364 50.9006H112.534L112.354 50.3809Z" fill="#8DB54B"/>
<path d="M151.255 52.1788H151.984L150.487 48.2739H149.758L148.267 52.1788H148.969L150.106 48.9475H150.123L151.255 52.1788Z" fill="#8DB54B"/>
<path d="M151.019 50.3809H149.215L149.029 50.9005H151.198L151.019 50.3809Z" fill="#8DB54B"/>
<path d="M106.1 48.8312H107.206C107.56 48.8312 107.882 48.9633 107.882 49.4273C107.882 49.8041 107.614 50.0113 107.217 50.0113H106.1V48.8312ZM105.419 52.1788H106.1V50.571H107.103C107.729 50.571 107.877 50.8885 107.877 51.6045C107.859 51.8017 107.894 52.0002 107.98 52.1788H108.709C108.537 51.8652 108.463 51.5074 108.496 51.1514C108.517 50.9717 108.478 50.7902 108.384 50.635C108.291 50.4799 108.149 50.3599 107.98 50.2936V50.2827C108.163 50.2013 108.316 50.0664 108.42 49.8961C108.524 49.7259 108.574 49.5282 108.562 49.3292C108.548 49.1754 108.503 49.0259 108.431 48.8894C108.358 48.7529 108.259 48.6321 108.14 48.534C108.02 48.4359 107.882 48.3624 107.734 48.3177C107.585 48.2731 107.43 48.2582 107.275 48.2739H105.418L105.419 52.1788Z" fill="#8DB54B"/>
<path d="M145.58 48.8311H146.685C147.039 48.8311 147.361 48.9632 147.361 49.4273C147.361 49.804 147.093 50.0125 146.696 50.0125H145.58V48.8311ZM146.755 50.5698C146.918 50.5759 147.082 50.5498 147.235 50.4929C147.388 50.4359 147.529 50.3493 147.648 50.2381C147.767 50.1268 147.864 49.993 147.931 49.8445C147.998 49.696 148.036 49.5357 148.04 49.3727C148.034 49.2147 147.993 49.0599 147.924 48.9177C147.855 48.7756 147.756 48.6491 147.636 48.5461C147.516 48.443 147.376 48.3656 147.224 48.3186C147.073 48.2716 146.913 48.2559 146.755 48.2726H144.896V52.1776H145.577V50.5698H146.755Z" fill="#8DB54B"/>
<path d="M132.06 51.7135C131.227 51.7135 130.878 50.9757 130.878 50.2257C130.878 49.4758 131.227 48.7379 132.06 48.7379C132.319 48.7269 132.572 48.8129 132.77 48.9788C132.968 49.1448 133.096 49.3786 133.131 49.6345H133.79C133.773 49.4253 133.715 49.2215 133.618 49.0349C133.522 48.8484 133.39 48.6827 133.228 48.5475C133.068 48.4123 132.881 48.3103 132.681 48.2473C132.48 48.1844 132.269 48.1616 132.059 48.1805C131.556 48.2392 131.093 48.48 130.756 48.8571C130.42 49.2342 130.234 49.7215 130.234 50.2263C130.234 50.7312 130.42 51.2185 130.756 51.5956C131.093 51.9727 131.556 52.2134 132.059 52.2721C132.269 52.291 132.48 52.2683 132.681 52.2054C132.881 52.1424 133.068 52.0403 133.228 51.9051C133.39 51.7699 133.522 51.6043 133.618 51.4178C133.715 51.2311 133.773 51.0273 133.79 50.8182H133.131C133.096 51.0736 132.967 51.3071 132.769 51.4728C132.572 51.6384 132.319 51.7243 132.06 51.7135Z" fill="#8DB54B"/>
<path d="M120.377 51.7135C119.544 51.7135 119.197 50.9756 119.197 50.2269C119.197 49.4782 119.545 48.7391 120.377 48.7391C120.636 48.7282 120.889 48.814 121.087 48.98C121.285 49.1459 121.414 49.3798 121.447 49.6357H122.107C122.09 49.4265 122.032 49.2227 121.935 49.0361C121.839 48.8495 121.706 48.6839 121.546 48.5487C121.385 48.4135 121.198 48.3114 120.998 48.2485C120.797 48.1855 120.586 48.1629 120.376 48.1817C119.873 48.2404 119.41 48.4811 119.073 48.8582C118.737 49.2354 118.551 49.7227 118.551 50.2275C118.551 50.7324 118.737 51.2197 119.073 51.5968C119.41 51.974 119.873 52.2146 120.376 52.2733C120.586 52.2922 120.797 52.2695 120.998 52.2066C121.198 52.1436 121.385 52.0415 121.546 51.9063C121.706 51.7712 121.839 51.6055 121.935 51.419C122.032 51.2324 122.09 51.0285 122.107 50.8194H121.447C121.413 51.0747 121.284 51.3081 121.086 51.4735C120.888 51.639 120.635 51.7245 120.377 51.7135Z" fill="#8DB54B"/>
<path d="M76.5831 14.46H78.5511C78.8935 14.46 79.2221 14.5956 79.464 14.8372C79.7066 15.0787 79.8426 15.4063 79.8426 15.7479V17.2853C79.8426 17.4544 79.8091 17.6219 79.7442 17.778C79.6793 17.9342 79.5843 18.0761 79.464 18.1956C79.3445 18.3151 79.2016 18.4099 79.0452 18.4744C78.8887 18.5391 78.7206 18.5722 78.5511 18.5721H76.5845C76.2414 18.5721 75.9134 18.4364 75.6709 18.1948C75.429 17.9533 75.293 17.6257 75.293 17.2842V15.7467C75.293 15.4054 75.429 15.0782 75.6709 14.8369C75.9128 14.5956 76.2408 14.46 76.5831 14.46Z" fill="#8DB54B"/>
<path d="M79.8426 21.9995H75.293V35.0228H79.8426V21.9995Z" fill="#8DB54B"/>
<path d="M63.9196 30.9104V14.4597H59.3702V33.6522C59.365 33.8328 59.3968 34.0126 59.4635 34.1807C59.5301 34.3487 59.6304 34.5014 59.7581 34.6296C59.8858 34.7578 60.0383 34.8587 60.2064 34.9262C60.3744 34.9938 60.5545 35.0266 60.7356 35.0225H70.7398V30.9093L63.9196 30.9104Z" fill="#8DB54B"/>
<path d="M96.6739 18.5733V14.46H86.6658C86.4847 14.4562 86.305 14.4891 86.1369 14.5568C85.9688 14.6245 85.8164 14.7256 85.6886 14.8538C85.5615 14.9822 85.4611 15.1349 85.3948 15.303C85.3278 15.4711 85.2964 15.6509 85.3019 15.8315V35.0229H89.8515V26.1117H96.6753V21.9996H89.8515V18.5733H96.6739Z" fill="#8DB54B"/>
<path d="M130.338 14.46H119.419C119.238 14.4562 119.058 14.4891 118.89 14.5568C118.722 14.6245 118.569 14.7256 118.442 14.8539C118.314 14.9822 118.214 15.135 118.147 15.303C118.081 15.4711 118.049 15.6509 118.055 15.8315V35.0229H122.604V18.5733H127.153V35.0229H131.703V15.8315C131.708 15.6508 131.677 15.4709 131.61 15.3028C131.544 15.1346 131.443 14.9817 131.316 14.8535C131.188 14.7251 131.035 14.6241 130.867 14.5565C130.699 14.4888 130.519 14.456 130.338 14.46Z" fill="#8DB54B"/>
<path d="M164 14.4597H152.626V18.573H156.038V39.5926H59.3701V43.7047H159.228C159.408 43.7077 159.588 43.6743 159.756 43.6063C159.923 43.5384 160.075 43.4374 160.202 43.3094C160.33 43.1814 160.43 43.0291 160.497 42.8616C160.564 42.694 160.596 42.5147 160.592 42.3344V18.573H164.005L164 14.4597Z" fill="#8DB54B"/>
<path d="M148.762 26.1117V18.1153C148.763 18.0552 148.752 17.9954 148.73 17.9395C148.708 17.8836 148.675 17.8327 148.633 17.7899C148.59 17.7473 148.539 17.7136 148.483 17.691C148.428 17.6684 148.367 17.6574 148.307 17.6586H145.123V14.9168C145.124 14.8566 145.114 14.7968 145.092 14.7408C145.069 14.6849 145.035 14.634 144.993 14.5913C144.951 14.5487 144.9 14.515 144.843 14.4925C144.788 14.4699 144.728 14.4589 144.667 14.46H137.844C137.663 14.4562 137.483 14.4891 137.315 14.5568C137.146 14.6245 136.994 14.7256 136.867 14.8538C136.739 14.9822 136.639 15.1349 136.572 15.303C136.506 15.4711 136.475 15.6509 136.479 15.8315V33.6525C136.475 33.8331 136.506 34.0127 136.573 34.1807C136.639 34.3486 136.74 34.5013 136.867 34.6295C136.995 34.7576 137.147 34.8586 137.315 34.9262C137.483 34.9939 137.663 35.0267 137.844 35.0229H148.762V30.9096H141.028V26.1117H148.762ZM141.028 21.9985V18.5733H144.213V21.9996L141.028 21.9985Z" fill="#8DB54B"/>
<path d="M113.277 26.1117V18.1153C113.279 18.0552 113.268 17.9954 113.247 17.9395C113.224 17.8836 113.191 17.8326 113.148 17.79C113.106 17.7473 113.055 17.7136 112.999 17.691C112.944 17.6684 112.884 17.6574 112.824 17.6586H109.638V14.9168C109.64 14.8565 109.63 14.7966 109.607 14.7405C109.585 14.6844 109.552 14.6334 109.509 14.5906C109.467 14.5478 109.416 14.514 109.36 14.4914C109.304 14.4687 109.244 14.4576 109.183 14.4588H102.36C102.179 14.4549 101.999 14.4879 101.831 14.5556C101.663 14.6233 101.51 14.7243 101.383 14.8526C101.255 14.9809 101.155 15.1337 101.089 15.3018C101.022 15.4699 100.99 15.6497 100.996 15.8303V33.6514C100.991 33.8319 101.022 34.0116 101.089 34.1795C101.156 34.3474 101.256 34.5 101.383 34.6282C101.511 34.7563 101.663 34.8573 101.831 34.9249C101.999 34.9926 102.179 35.0254 102.36 35.0216H113.277V30.9083H105.539V26.1105L113.277 26.1117ZM105.544 21.9984V18.5733H108.728V21.9996L105.544 21.9984Z" fill="#8DB54B"/>
</g>
</g>
<defs>
<clipPath id="clip0_21_2">
<rect width="164" height="60" fill="white"/>
</clipPath>
</defs>
</svg>
