<svg width="182" height="42" viewBox="0 0 182 42" fill="none" xmlns="http://www.w3.org/2000/svg">
<mask id="mask0_67_49" style="mask-type:luminance" maskUnits="userSpaceOnUse" x="0" y="7" width="182" height="28">
<path d="M182 7H0V35H182V7Z" fill="white"/>
</mask>
<g mask="url(#mask0_67_49)">
<path d="M105.355 8.09025V33.101C105.357 33.101 105.362 34.1912 106.445 34.1912H109.425C110.511 34.1841 110.507 33.101 110.507 33.101V8.09025C110.511 8.09025 110.507 7 109.425 7H106.445C105.357 7 105.357 8.09025 105.355 8.09025Z" fill="#FF5A00"/>
<path d="M156.874 33.1012L156.875 22.0755C156.875 17.1412 152.537 14.116 149.371 14.116C146.221 14.116 143.543 14.9351 141.483 16.6048C141.299 16.7565 140.785 16.9138 140.785 16.4644L140.775 15.3269C140.775 15.3269 140.775 14.2427 139.691 14.2427H137.121C137.121 14.2427 136.037 14.2427 136.037 15.3269L136.033 33.1014C136.037 34.1916 137.121 34.1916 137.121 34.1916L139.696 34.1894C140.775 34.1846 140.775 33.1014 140.769 33.1014L140.773 24.4146C140.775 22.0148 142.393 17.9135 147.719 17.9135C151.523 17.9135 152.131 20.5333 152.131 22.0758L152.135 33.1014C152.135 34.1916 153.222 34.1846 153.222 34.1846L155.794 34.1916C155.794 34.1916 156.879 34.1914 156.874 33.1012Z" fill="#FF5A00"/>
<path d="M113.354 19.7439C113.346 19.7814 113.344 19.8188 113.344 19.8554L113.354 19.7439Z" fill="#FF5A00"/>
<path d="M170.43 18.0117C174.139 18.0117 177.13 20.5602 177.14 24.5199C177.148 28.6017 174.146 31.2209 170.437 31.2209C166.725 31.2209 163.898 28.3085 163.898 24.4675C163.892 20.6679 166.97 18.0117 170.43 18.0117ZM176.628 32.492C176.943 32.2434 177.268 32.4475 177.262 33.0185C177.262 33.101 177.262 34.1912 178.35 34.1912H180.921C180.921 34.1912 182 34.1912 182 33.101V8.09027C182 7.00002 180.921 7.00659 180.921 7.00659H178.35C178.35 7.00659 177.262 7.00002 177.254 8.09027L177.258 15.9893C177.25 16.5603 176.948 16.7561 176.633 16.5159C169.637 11.1524 159.002 16.5159 159.022 24.4579C159.038 33.342 169.528 38.1266 176.628 32.492Z" fill="#FF5A00"/>
<path d="M118.55 26.4345C121.001 25.1369 127.054 25.2634 127.613 25.3383C127.896 25.3762 128.305 25.5797 128.3 25.9778C128.281 31.2136 121.133 31.9187 118.397 30.1163C117.825 29.7395 117.463 29.0629 117.44 28.4613C117.42 27.5719 117.725 26.8673 118.55 26.4345ZM115.366 33.4773C118.724 35.87 124.968 35.2901 127.812 32.8013C128.157 32.4988 128.557 32.7469 128.669 33.101C128.948 33.976 129.343 34.1841 130.215 34.1912C130.614 34.1912 131.993 34.1912 131.993 34.1912C133.07 34.1912 133.077 33.101 133.07 33.101L133.075 21.8505C133.077 15.7336 127.374 14.1093 123.001 14.1093C118.113 14.1158 114.917 15.9723 113.357 19.7509C113.199 20.1348 113.656 20.5959 114.046 20.5959L117.382 20.6073C117.953 20.6073 118.525 20.1232 118.695 19.8412C119.563 18.3881 120.965 17.8469 123.596 17.8469C126.507 17.8469 127.273 18.4938 128.214 19.8412C128.82 20.7054 128.001 21.6069 127.536 21.6305C120.526 21.9909 119.337 22.2455 117.427 22.5551C114.661 22.9906 112.549 25.6683 112.568 28.4613C112.567 30.2875 113.423 32.101 115.366 33.4773ZM91.3735 34.8917C100.037 34.8917 103.665 29.2708 103.657 24.5055C103.652 19.9451 100.012 14.1158 91.2995 14.1158C82.6008 14.1093 78.9635 19.9282 78.9635 24.5125C78.9635 29.3624 82.6382 34.8917 91.3735 34.8917ZM91.3735 31.1693C86.3095 31.1693 83.9902 27.4148 83.9902 24.5358C83.9902 21.6608 86.4168 17.8638 91.3015 17.8638C96.1855 17.8638 98.6295 21.6375 98.6295 24.5125C98.6295 27.4214 96.2388 31.1693 91.3735 31.1693ZM58.1494 23.0373C58.1472 25.5638 58.1542 31.3105 58.1542 33.0937C58.1542 34.1821 57.0668 34.1771 57.0668 34.1771H54.6364C54.6364 34.1771 53.5472 34.1915 53.5396 33.0937L53.5444 8.08393C53.5441 7 54.627 7 54.627 7H70.3902C73.9568 7 78.0228 9.4597 78.0228 14.4793C78.0228 16.9202 76.6262 19.1728 74.6615 20.5463C74.5035 20.652 74.3822 20.8652 74.4588 20.9236C75.8035 21.9835 75.8195 22.8497 76.2928 24.6688C77.1462 27.9626 77.2475 30.8297 78.5435 33.5898C78.6348 33.78 78.4115 34.1768 78.1162 34.1768L74.9768 34.1844C73.9455 34.1844 73.3815 33.6953 73.1855 33.0937C72.0582 29.6481 72.8348 26.3073 70.4882 23.0373C69.9375 22.2695 68.7202 21.9537 67.2975 21.9537H59.2366C59.2344 21.9534 58.1542 21.9534 58.1494 23.0373ZM68.8548 18.3461C68.8548 18.3506 73.0848 18.3577 73.0848 14.4793C73.0848 10.6031 68.8548 10.5955 68.8548 10.5955H59.2364C58.154 10.5955 58.154 11.6862 58.154 11.6862C58.154 11.6862 58.147 15.9276 58.154 17.2599C58.154 18.3506 59.2966 18.3506 59.2364 18.3506L68.8548 18.3461Z" fill="#FF5A00"/>
<path d="M42.971 18.933H16.3631C12.4177 18.933 9.64271 21.9675 9.64271 25.5307C9.64271 29.0861 12.5838 32.2021 16.3631 32.2021C20.2592 32.2021 48.9019 32.2021 48.9019 32.2021V34.1767C48.9019 34.1767 21.2695 34.1767 16.3305 34.1767C11.0886 34.1767 7.56311 30.163 7.56311 25.5471C7.56311 20.9301 11.1046 16.9369 16.3166 16.9369C23.3013 16.9369 40.9227 16.9369 40.9227 16.9369V14.2422H7.56311V34.1767H5.37256V12.2461H42.9712L42.971 18.933Z" fill="#FF5A00"/>
<path d="M14.3173 28.9481H48.9024V26.956H16.3633V24.2586C16.3633 24.2586 35.7701 24.2586 40.9768 24.2586C46.1888 24.2586 49.73 20.2681 49.73 15.6499C49.73 11.0325 46.0973 7 40.8535 7C35.6106 7 0 7 0 7V34.1768H2.1931V8.99891C2.1931 8.99891 37.1414 8.99891 40.9227 8.99891C44.7111 8.99891 47.6671 12.1126 47.6671 15.6704C47.6671 19.2287 44.8706 22.2625 40.9227 22.2625C36.9783 22.2625 14.3171 22.2625 14.3171 22.2625L14.3173 28.9481Z" fill="#FF5A00"/>
</g>
</svg>
