<svg width="188" height="42" viewBox="0 0 188 42" fill="none" xmlns="http://www.w3.org/2000/svg">
<mask id="mask0_67_6" style="mask-type:luminance" maskUnits="userSpaceOnUse" x="0" y="9" width="188" height="24">
<path d="M188 9H0V33H188V9Z" fill="white"/>
</mask>
<g mask="url(#mask0_67_6)">
<path d="M160.96 21.3951H169.182L165.033 14.8683L160.96 21.3951ZM147.385 31.6253V28.7859L150.251 28.4593C151.243 28.3334 151.663 27.424 151.786 27.2161L158.928 15.5741C159.509 14.6589 158.942 13.8549 158.194 13.7714L154.442 13.3292V10.4604H170.722C171.636 10.4604 172.214 11.0828 172.588 11.6232L182.097 26.1778C182.846 27.3391 183.426 28.2558 184.381 28.3817L187.373 28.7171V31.6253H169.06V28.7566L171.386 28.4652C172.507 28.3422 173.422 27.8413 172.507 26.4693L171.636 25.1366H158.634L157.638 26.7606C157.018 27.7565 157.638 28.3422 158.595 28.4652L160.92 28.7566V31.6253H147.385Z" fill="#CC0000"/>
<path d="M132.021 27.5473H126.624V14.4922H132.021C137.169 14.4922 139.331 15.7003 139.331 21.0204C139.331 26.386 137.169 27.5473 132.021 27.5473ZM135.258 10.4607H114.32L114.316 13.3294L116.94 13.6004C117.922 13.7439 118.318 14.4512 118.318 15.4045V26.8004C118.318 27.5897 117.985 28.3424 117.115 28.4655L114.304 28.8315V31.6168L135.258 31.6256C144.893 31.6256 149.046 26.9263 149.046 20.7319C149.046 15.1599 144.893 10.4607 135.258 10.4607Z" fill="#CC0000"/>
<path d="M0.626465 31.6259H17.5661V28.7967L14.6631 28.4657C13.9962 28.3822 13.3323 27.9678 13.3323 26.5488V23.1426H26.3716V26.3863C26.3716 27.3381 26.2049 28.2563 25.0846 28.3822L22.1348 28.7176V31.6259H39.0773V28.7176L36.0866 28.3822C35.5075 28.3016 34.8421 27.8419 34.8421 26.6352V15.6156C34.8421 14.4924 35.256 13.7441 36.1276 13.6621L39.0773 13.3297V10.4609H22.1348V13.2887L25.0846 13.6621C26.0805 13.7866 26.3716 14.5774 26.3716 15.6156V18.9003H13.3323V15.5746C13.3323 14.3269 13.831 13.7441 14.7026 13.6621L17.5661 13.3297V10.4609H0.665951V13.3297L3.49141 13.6621C4.61458 13.7866 4.90269 14.6184 4.86174 15.7005V26.4258C4.86174 27.6324 4.52976 28.3427 3.45047 28.4657L0.626465 28.7967V31.6259Z" fill="#CC0000"/>
<path d="M57.1822 13.7014C52.3678 13.7014 49.6257 15.4909 49.6257 20.978C49.6257 26.5485 52.3678 28.3425 57.1822 28.3425C61.9996 28.3425 64.7417 26.5485 64.7417 20.978C64.7417 15.4909 61.9996 13.7014 57.1822 13.7014ZM39.9106 20.9369C39.9106 14.2857 45.2676 9.62744 57.2246 9.62744C69.1027 9.62744 74.4597 14.2857 74.4597 20.9369C74.4597 27.7567 69.1027 32.3725 57.2246 32.3725C45.2676 32.3725 39.9106 27.7567 39.9106 20.9369Z" fill="#CC0000"/>
<path d="M75.4028 31.6259H88.9405V28.7967L86.0317 28.4657C85.1997 28.3822 84.7029 27.6822 84.7029 26.7172V15.948L95.9589 30.794C96.3293 31.2934 97.0357 31.6259 97.6997 31.6259H108.33V15.5746C108.33 14.8219 108.53 13.791 109.618 13.6621L112.564 13.3297V10.4609H99.0285V13.2887L101.979 13.6621C103.02 13.788 103.264 14.6594 103.264 15.6566V26.1373L92.0941 11.3747C91.6797 10.8344 91.1405 10.4609 90.3509 10.4609H75.4028V13.3297L78.2254 13.6621C79.2199 13.81 79.5957 14.3167 79.5957 15.7005V26.4258C79.5957 27.6984 79.2491 28.3104 78.183 28.4657L75.4028 28.7967V31.6259Z" fill="#CC0000"/>
</g>
</svg>
