<svg width="139" height="53" viewBox="0 0 139 53" fill="none" xmlns="http://www.w3.org/2000/svg">
<path d="M82.0809 28.1311V6.53696C82.1963 6.52542 82.2984 6.5073 82.399 6.5073C83.8803 6.5073 85.3617 6.51719 86.843 6.50401C87.1231 6.50236 87.2171 6.58145 87.2055 6.85993C87.1841 7.42676 87.1858 7.99525 87.1808 8.56373C87.1808 8.6626 87.1924 8.76146 87.2055 8.99874C88.822 6.6935 91.0333 5.78887 93.6467 5.8004C96.3277 5.81194 98.4203 6.89947 99.6941 9.41398C99.9462 9.0284 100.157 8.68731 100.384 8.3594C101.465 6.81049 102.991 6.04757 104.838 5.89433C106.995 5.71472 108.973 6.17774 110.614 7.66569C112.029 8.94931 112.74 10.5987 112.997 12.4607C113.255 14.3359 113.208 16.2177 113.175 18.1077C113.117 21.423 113.171 24.74 113.176 28.057C113.176 28.108 113.165 28.1591 113.156 28.2135H107.772C107.772 27.8872 107.772 27.6302 107.772 27.3731C107.772 23.3427 107.796 19.3122 107.748 15.2834C107.737 14.3738 107.536 13.4494 107.3 12.5662C106.999 11.4342 106.229 10.6729 105.046 10.4817C103.814 10.2824 102.695 10.5691 101.866 11.5775C100.946 12.6964 100.561 14.0327 100.548 15.4432C100.511 19.4325 100.534 23.4234 100.528 27.4143C100.528 28.1904 100.671 28.1558 99.7896 28.1591C98.2951 28.1641 96.8006 28.1739 95.306 28.1822C94.7656 28.1855 94.759 28.1855 94.759 27.65C94.7557 23.5668 94.7738 19.4836 94.7408 15.402C94.7342 14.5254 94.6156 13.6356 94.4311 12.7771C94.1707 11.5726 93.4259 10.7273 92.1736 10.4999C90.8752 10.2642 89.6854 10.5361 88.8088 11.6121C87.8498 12.7903 87.4708 14.1892 87.4577 15.6722C87.4247 19.5692 87.4379 23.4679 87.4329 27.3665C87.4329 27.5379 87.4675 27.7192 87.423 27.879C87.3901 27.996 87.2583 28.1739 87.1693 28.1756C85.5034 28.1921 83.8375 28.1871 82.1732 28.1838C82.1501 28.1838 82.1271 28.1591 82.0776 28.1328L82.0809 28.1311Z" fill="#B5031D"/>
<path d="M14.5301 7.6243C12.8165 12.0865 11.1011 16.5487 9.36929 21.0603C9.9592 20.9795 10.4881 20.879 11.022 20.8411C12.6138 20.7258 14.2072 20.6269 15.8022 20.5412C16.1532 20.5231 16.5108 20.5742 16.8618 20.6269C16.9491 20.6401 17.0562 20.762 17.0924 20.856C17.7137 22.4972 18.3266 24.1433 18.9396 25.7878C18.9511 25.8207 18.9396 25.8603 18.9396 25.9229C18.3794 25.8405 17.8356 25.735 17.2885 25.6823C12.4062 25.2094 7.79072 26.1354 3.42244 28.3418C2.92811 28.5923 2.44037 28.8609 1.95757 29.1311C1.3759 29.4574 0.75798 29.5645 0 29.4409C0.276827 28.7801 0.548711 28.126 0.825539 27.4734C2.69412 23.0772 4.56271 18.6792 6.43294 14.2846C8.16971 10.2047 9.90812 6.12647 11.6465 2.04821C11.8904 1.47808 12.1442 0.911247 12.3699 0.334525C12.4605 0.102188 12.5841 0.0033194 12.8362 0.0033194C14.0935 0.00991052 15.3491 0.00991233 16.6064 2.56563e-05C16.8502 -0.00162212 16.9771 0.0758225 17.0793 0.313103C18.9511 4.68136 20.8346 9.04469 22.713 13.4097C24.2422 16.9623 25.7697 20.5165 27.2972 24.0691C27.8492 25.3544 28.3979 26.6413 28.9466 27.9282C28.9763 27.9991 28.9993 28.0732 29.0372 28.1836C28.8939 28.1935 28.7835 28.21 28.6714 28.21C26.727 28.21 24.7826 28.2034 22.8383 28.2182C22.545 28.2199 22.4494 28.0732 22.3637 27.8475C21.6848 26.0745 21.001 24.3031 20.3238 22.5285C18.8885 18.7699 17.4566 15.0113 16.0247 11.2511C15.6309 10.2163 15.2387 9.1798 14.8449 8.14335C14.7806 7.97198 14.7114 7.80226 14.6455 7.63254L14.5318 7.61935L14.5301 7.6243Z" fill="#B5031D"/>
<path d="M62.8482 19.3582C63.5156 21.1443 64.5207 22.5746 66.2344 23.4199C68.6962 24.6343 71.0163 24.1235 73.2358 22.7905C73.7664 22.4725 74.2031 21.9847 74.6496 21.5415C74.8325 21.3602 74.9462 21.3223 75.139 21.4871C76.1755 22.3703 77.2136 23.2486 78.2533 24.1268C78.4164 24.2636 78.3785 24.374 78.2533 24.5223C76.9862 26.0564 75.4076 27.1554 73.5588 27.8656C71.7347 28.5659 69.8447 28.9285 67.8871 28.7324C63.2733 28.2693 59.4027 24.893 58.2707 20.3435C57.2441 16.2191 58.1487 12.5396 60.9813 9.37591C62.5977 7.56829 64.6245 6.39178 67.0435 6.03256C71.6935 5.34049 75.373 6.98169 78.0424 10.8243C79.7512 13.2828 80.2076 16.0593 79.8846 18.9907C79.8714 19.1093 79.705 19.2659 79.5781 19.3054C79.3969 19.3615 79.186 19.3318 78.9882 19.3318C73.7499 19.3318 68.5116 19.3318 63.2733 19.3351C63.1464 19.3351 63.0196 19.3499 62.8449 19.3614L62.8482 19.3582ZM62.9421 15.1365H74.8704C74.4041 13.0406 72.2554 10.7683 69.6091 10.47C66.0877 10.0746 63.6836 12.8082 62.9421 15.1365Z" fill="#B5031D"/>
<path d="M115.065 17.2705C114.981 11.472 119.697 5.84316 126.484 5.79208C132.811 5.74429 138.038 10.8606 138.059 17.1733C138.079 23.5123 133.241 28.515 126.94 28.7588C120.201 29.0192 114.956 23.4381 115.065 17.2705ZM119.822 17.2112C119.683 20.7061 122.725 24.1632 126.785 24.0248C129.85 23.9209 133.297 21.5646 133.287 17.2573C133.279 13.3966 130.325 10.5591 126.541 10.5377C122.503 10.5163 119.762 14.0063 119.82 17.2095L119.822 17.2112Z" fill="#B5031D"/>
<path d="M40.0929 11.8955C39.9429 11.7868 39.8061 11.6912 39.6743 11.5907C38.2539 10.513 36.6918 9.81108 34.8694 10.0022C34.2416 10.0681 33.6121 10.2955 33.0255 10.5476C32.2659 10.8755 31.9545 11.5544 31.9742 12.352C31.994 13.1198 32.3928 13.7311 33.1063 13.9783C34.4624 14.4479 35.8465 14.8401 37.229 15.2306C38.7351 15.6558 40.2181 16.1138 41.4836 17.0877C43.1693 18.3845 43.835 20.1179 43.685 22.1974C43.5894 23.5124 43.2253 24.7317 42.4278 25.811C41.5149 27.0452 40.2659 27.7801 38.8405 28.225C36.6193 28.9171 34.3503 29.0308 32.0599 28.6205C31.8951 28.5908 31.6842 28.4475 31.6183 28.3008C30.7466 26.3647 29.8964 24.4186 29.0461 22.4726C28.9917 22.3474 28.9802 22.2057 28.9489 22.0706C28.9802 22.0425 29.0115 22.0129 29.0412 21.9849C29.2752 22.1365 29.5322 22.2617 29.7382 22.443C30.7318 23.3163 31.7963 24.0594 33.1046 24.3791C34.3816 24.6905 35.6422 24.7119 36.8665 24.1533C38.1435 23.57 38.5357 22.3952 38.0875 21.1593C37.8881 20.6073 37.4465 20.2646 36.9291 20.0866C35.7196 19.673 34.4854 19.3352 33.2694 18.9398C32.1423 18.574 30.9608 18.2988 29.9194 17.7616C27.3835 16.4533 26.5975 14.3853 26.9617 11.8016C27.4016 8.67576 29.4729 7.00986 32.345 6.27C35.4972 5.45765 38.5835 5.74107 41.505 7.27021C41.8428 7.44652 42.1625 7.66403 42.464 7.89801C42.553 7.96557 42.6288 8.20285 42.5794 8.27535C41.7703 9.47988 40.9415 10.6696 40.0912 11.8988L40.0929 11.8955Z" fill="#B5031D"/>
<path d="M51.2513 10.8325C51.2513 11.0945 51.2513 11.2906 51.2513 11.485C51.2513 14.4725 51.243 17.4582 51.2562 20.4457C51.2579 20.9977 51.2875 21.5612 51.4012 22.0984C51.7127 23.5699 52.2004 24.0807 53.8976 24.1598C54.7116 24.1977 55.5388 23.9769 56.4006 23.8698C56.3808 23.8335 56.4121 23.8648 56.4121 23.8961C56.4616 25.2028 56.5077 26.5095 56.5588 27.8145C56.567 28.037 56.4781 28.149 56.2589 28.2018C54.4315 28.6483 52.5926 28.8642 50.724 28.472C48.2886 27.9612 46.7545 26.4897 46.2239 24.0774C45.9883 23.0047 45.8861 21.8809 45.8795 20.7802C45.8466 15.0047 45.863 9.23089 45.8564 3.45543C45.8564 3.21815 45.9141 3.06161 46.1349 2.94626C47.7382 2.10425 49.3349 1.25234 50.9349 0.405385C51.0107 0.36419 51.0997 0.346064 51.2365 0.296631V6.49063H59.4523C59.3996 6.61257 59.3765 6.69496 59.3337 6.76252C58.5262 8.0346 57.7254 9.30998 56.8982 10.5672C56.806 10.7073 56.5621 10.8177 56.3874 10.8193C54.8402 10.8391 53.2929 10.8309 51.744 10.8325C51.6006 10.8325 51.4573 10.8325 51.2513 10.8325Z" fill="#B5031D"/>
<path d="M19.7918 43.6578C20.6305 42.6049 21.4362 41.5932 22.2404 40.5814C22.7825 39.8993 23.3312 39.222 23.8618 38.53C24.0414 38.296 24.2375 38.1856 24.5341 38.2169C24.9081 38.2564 25.4091 38.1328 25.6249 38.3306C25.8128 38.5036 25.6908 39.0243 25.6908 39.3901C25.6941 42.6675 25.6908 45.945 25.7057 49.2224C25.7057 49.5536 25.6035 49.636 25.3003 49.6212C24.9444 49.603 24.5852 49.608 24.2292 49.6294C23.9541 49.6459 23.8634 49.5569 23.8634 49.2735C23.8733 47.133 23.8684 44.9925 23.8684 42.8504C23.8684 42.4434 23.8684 42.0364 23.8684 41.6294L23.7712 41.5668C22.4562 43.2129 21.1396 44.8591 19.7769 46.5662C18.4356 44.8986 17.1042 43.2443 15.7712 41.5899C15.7432 41.6064 15.7151 41.6228 15.6871 41.641V49.6195C15.1285 49.6195 14.5897 49.6294 14.0525 49.6063C13.9899 49.603 13.8894 49.4218 13.8845 49.318C13.8647 48.883 13.8729 48.4463 13.8729 48.0096C13.8729 44.8377 13.8696 41.6673 13.8696 38.4953C13.8696 38.4179 13.8812 38.3405 13.8894 38.2235C14.3739 38.2235 14.8468 38.2037 15.3147 38.2367C15.4416 38.2449 15.58 38.3965 15.6723 38.5118C16.9526 40.1102 18.2264 41.7135 19.5034 43.3151C19.5841 43.4173 19.6698 43.5161 19.7868 43.6578H19.7918Z" fill="black"/>
<path d="M73.4731 38.2944C75.2577 38.2944 77.001 38.1461 78.7098 38.3306C81.048 38.5844 82.2031 41.1352 80.9178 42.9477C80.7893 43.1273 80.6295 43.2855 80.3691 43.5706C80.496 43.6414 80.6377 43.6925 80.7465 43.7848C81.8439 44.7092 82.2871 45.8758 81.8356 47.2517C81.3809 48.6391 80.323 49.4367 78.8861 49.5322C77.1872 49.6459 75.4785 49.6015 73.7747 49.6295C73.4369 49.6344 73.4814 49.407 73.4814 49.1961C73.4797 46.3438 73.4764 43.4931 73.4731 40.6408C73.4731 39.8515 73.4731 39.0606 73.4731 38.2944ZM75.3253 44.4077V47.9669C76.4738 47.9669 77.5926 47.9866 78.7081 47.952C78.9487 47.9454 79.2058 47.7774 79.4183 47.6291C80.0132 47.2138 80.2702 46.4674 80.0906 45.7753C79.916 45.0964 79.3112 44.4324 78.751 44.4175C77.6173 44.3862 76.4836 44.4077 75.3253 44.4077ZM75.3203 42.7945C76.3699 42.7945 77.3866 42.8307 78.3984 42.7813C79.069 42.7483 79.5749 42.0859 79.5914 41.3659C79.6078 40.7018 79.1185 39.9471 78.5384 39.9175C77.4756 39.8647 76.4095 39.9026 75.3203 39.9026V42.7945Z" fill="black"/>
<path d="M60.6827 48.0987C60.6827 48.5684 60.6992 49.0017 60.6695 49.4301C60.6629 49.5274 60.5064 49.6806 60.4042 49.6938C60.0137 49.7449 59.6133 49.7943 59.2211 49.7646C57.9721 49.6691 57.2635 48.893 57.2306 47.5434C57.2075 46.5679 57.2635 45.5892 57.28 44.6137C57.308 42.9247 57.3295 41.2357 57.3624 39.5468C57.3641 39.4281 57.4102 39.2518 57.4942 39.2024C57.9424 38.9371 58.4104 38.7031 58.9328 38.4263V41.791C59.1206 41.791 59.2623 41.791 59.4024 41.791C60.4866 41.791 61.5709 41.7976 62.6551 41.7828C62.9237 41.7795 63.0522 41.8734 63.1478 42.1239C63.7624 43.7239 64.3935 45.3189 65.023 46.9156C65.0641 47.0178 65.1301 47.1101 65.2372 47.3029C65.3987 46.886 65.5222 46.5597 65.6508 46.2367C66.2061 44.8411 66.7597 43.4438 67.3266 42.0514C67.371 41.941 67.5144 41.8009 67.6182 41.796C68.1307 41.7696 68.6448 41.7844 69.2199 41.7844C69.0567 42.198 68.9117 42.5721 68.7618 42.9428C67.7121 45.5364 66.679 48.135 65.5997 50.7154C65.3591 51.2905 65.0081 51.8392 64.616 52.3269C63.9618 53.1409 63.0225 53.019 62.1212 52.9251C62.0471 52.9168 61.9284 52.7916 61.9251 52.7175C61.907 52.2627 61.9152 51.8079 61.9152 51.3234C62.0207 51.3432 62.0701 51.3498 62.1179 51.3613C63.1231 51.5887 63.4675 51.4091 63.97 50.4913C64.2683 49.9459 64.3177 49.4499 64.0623 48.8501C63.3093 47.0936 62.6221 45.3107 61.8955 43.5426C61.8477 43.4256 61.6862 43.2806 61.5758 43.2773C60.7189 43.2559 59.8621 43.2658 58.9426 43.2658C58.9426 43.5772 58.9426 43.8491 58.9426 44.121C58.9426 45.1245 58.9707 46.1296 58.9295 47.1331C58.8883 48.1482 59.6479 48.308 60.2773 48.1992C60.4042 48.1778 60.5262 48.1383 60.681 48.1004L60.6827 48.0987Z" fill="black"/>
<path d="M123.888 42.6085V38.2221C124.386 38.2221 124.857 38.2106 125.327 38.2337C125.406 38.237 125.516 38.377 125.543 38.4726C125.581 38.6077 125.551 38.7609 125.551 38.906C125.549 42.3267 125.541 45.7492 125.551 49.17C125.551 49.5193 125.455 49.6396 125.108 49.6165C124.706 49.5902 124.299 49.6099 123.875 49.6099V48.8882C121.509 50.3679 119.474 50.1174 118.055 47.654C117.096 45.9898 117.478 44.0157 118.802 42.7024C119.489 42.0219 120.339 41.6841 121.298 41.6495C122.242 41.6149 123.081 41.9362 123.885 42.6085H123.888ZM119.273 45.6948C119.251 47.0064 120.329 48.2439 121.517 48.2736C122.732 48.3032 123.859 47.0839 123.882 45.7162C123.903 44.3996 122.789 43.2116 121.506 43.1803C120.342 43.1506 119.294 44.3304 119.273 45.6964V45.6948Z" fill="black"/>
<path d="M38.3872 42.6151C39.4369 41.7912 40.5112 41.4418 41.7306 41.7236C42.5413 41.9115 43.2136 42.3382 43.7475 42.9743C44.9882 44.4573 45.064 46.6373 43.9254 48.1944C43.2745 49.0842 42.388 49.5852 41.3005 49.7351C40.2179 49.8851 39.2787 49.5506 38.4811 48.8371C38.4284 48.8964 38.4152 48.9046 38.4136 48.9145C38.3609 49.3825 38.0884 49.6198 37.5963 49.6264C36.7411 49.6379 36.7378 49.6379 36.7378 48.7794C36.7378 45.3454 36.7378 41.9098 36.7394 38.4758C36.7394 38.4099 36.7477 38.3457 36.7559 38.2221C37.2519 38.2221 37.7479 38.2105 38.2406 38.2386C38.2966 38.2419 38.3839 38.4627 38.3856 38.5846C38.3955 39.7595 38.3889 40.936 38.3889 42.1108C38.3889 42.241 38.3889 42.3712 38.3889 42.6151H38.3872ZM43.006 45.6206C43.0323 45.0604 42.8181 44.5034 42.4243 44.0157C41.8179 43.261 40.7683 42.9397 40.0202 43.2742C38.3922 44.0041 37.6787 46.3605 39.5374 47.827C40.1932 48.3444 40.9627 48.3757 41.6976 47.972C42.5841 47.4859 43.0125 46.7098 43.0043 45.6206H43.006Z" fill="black"/>
<path d="M84.7766 46.3012C84.9364 47.2256 85.8559 48.0989 86.8775 48.2406C87.6767 48.351 88.232 48.1104 89.5354 47.0147C89.8699 47.336 90.2143 47.6557 90.5372 47.9968C90.5784 48.0412 90.5372 48.2291 90.4762 48.2934C89.2569 49.577 87.2795 50.2476 85.4868 49.427C83.8653 48.6839 82.8585 46.868 83.1008 45.0406C83.3842 42.8969 85.5148 41.3546 87.6635 41.666C89.6738 41.9576 90.758 43.4374 90.931 45.3224C90.9541 45.5679 90.9244 45.8316 90.8486 46.0639C90.8124 46.1727 90.6081 46.2913 90.4779 46.2913C88.7065 46.3061 86.9368 46.3012 85.1654 46.3012C85.0386 46.3012 84.91 46.3012 84.7766 46.3012ZM89.2091 44.8347C89.0542 43.8559 88.1117 43.088 87.0835 43.0666C86.0964 43.0468 85.0649 43.8476 84.854 44.8347H89.2091Z" fill="black"/>
<path d="M95.3675 47.3145C95.524 46.9157 95.6509 46.5878 95.781 46.2616C96.3396 44.8527 96.8966 43.4439 97.4618 42.0383C97.5013 41.9411 97.6018 41.801 97.6793 41.7977C98.2263 41.7763 98.7751 41.7862 99.3683 41.7862C98.9547 42.7996 98.5625 43.7586 98.172 44.7193C97.3217 46.8086 96.4781 48.8997 95.6163 50.9841C95.4713 51.3351 95.2587 51.6597 95.056 51.9843C94.5304 52.8214 93.7312 53.0504 92.7969 52.9911C91.8313 52.9285 91.9895 52.9532 91.9845 52.1458C91.9829 51.8706 91.9845 51.5954 91.9845 51.3252C92.0356 51.317 92.0636 51.3038 92.0867 51.3104C93.3621 51.6465 94.2585 51.0583 94.4101 49.7137C94.4447 49.4039 94.2535 49.0579 94.1267 48.7431C93.227 46.5054 92.3174 44.2727 91.4111 42.0383C91.3864 41.979 91.3666 41.918 91.3188 41.7912C91.912 41.7912 92.469 41.7763 93.0243 41.806C93.11 41.8109 93.2138 42.0004 93.2616 42.1224C93.8993 43.7273 94.5287 45.3372 95.1631 46.9438C95.2043 47.0492 95.2719 47.1448 95.3675 47.3145Z" fill="black"/>
<path d="M99.5808 45.7044C99.5676 43.5112 101.436 41.636 103.657 41.6377C106.043 41.6393 107.711 43.559 107.76 45.6303C107.815 47.8762 105.913 49.7744 103.68 49.7893C101.459 49.8024 99.5923 47.9437 99.5791 45.7044H99.5808ZM106.029 45.7621C106.037 44.2148 104.832 43.0185 103.418 43.1718C102.283 43.2937 101.331 44.3813 101.276 45.6171C101.224 46.7903 102.143 48.0014 103.247 48.214C104.682 48.4892 106.019 47.311 106.029 45.7621Z" fill="black"/>
<path d="M27.2842 45.6846C27.2792 43.4436 29.0836 41.6377 31.3328 41.6294C33.5655 41.6212 35.4176 43.4502 35.416 45.6615C35.4127 47.9075 33.5342 49.7909 31.3064 49.781C29.0918 49.7711 27.2891 47.9338 27.2858 45.6846H27.2842ZM31.3031 48.2123C32.6922 48.2057 33.7171 47.1248 33.7171 45.6681C33.7171 44.3285 32.5966 43.1404 31.3344 43.1404C30.0525 43.1404 28.9534 44.3268 28.9534 45.7126C28.9534 47.044 30.0574 48.2189 31.3031 48.2123Z" fill="black"/>
<path d="M110.774 49.6246C110.251 49.6246 109.754 49.6394 109.258 49.6098C109.177 49.6048 109.05 49.4005 109.047 49.2852C109.026 48.5997 109.034 47.9126 109.032 47.2254C109.03 45.5085 109.029 43.7931 109.029 42.0761C109.029 41.9987 109.042 41.9212 109.05 41.8108H110.721C110.752 42.0036 110.785 42.1964 110.828 42.4568C111.014 42.3431 111.176 42.2492 111.331 42.147C112.941 41.0941 115.177 41.6708 115.908 43.3746C116.121 43.8706 116.216 44.4456 116.233 44.9878C116.281 46.4658 116.259 47.9439 116.264 49.4236C116.264 49.4615 116.246 49.4994 116.215 49.6213C115.75 49.6213 115.266 49.6361 114.783 49.6048C114.715 49.5999 114.611 49.3709 114.61 49.2456C114.593 48.0576 114.602 46.8695 114.585 45.6815C114.58 45.3008 114.567 44.9087 114.473 44.5445C114.224 43.5773 113.4 43.0516 112.4 43.1752C111.525 43.2823 110.825 44.0765 110.802 45.0685C110.769 46.4411 110.78 47.8137 110.774 49.1879C110.774 49.3049 110.774 49.4203 110.774 49.6246Z" fill="black"/>
<path d="M49.9958 49.6116V38.2188C50.5165 38.2188 51.0273 38.204 51.5365 38.2353C51.609 38.2403 51.726 38.4594 51.7276 38.5814C51.7424 39.9556 51.7391 41.3282 51.7391 42.7024C51.7391 44.8825 51.7309 47.0625 51.7391 49.2408C51.7391 49.516 51.665 49.6231 51.3865 49.6149C50.9301 49.6017 50.472 49.6116 49.9941 49.6116H49.9958Z" fill="black"/>
<path d="M47.995 49.6296C47.4793 49.6296 46.98 49.6444 46.484 49.6147C46.4033 49.6098 46.2764 49.4055 46.2714 49.2901C46.2467 48.6706 46.2517 48.0493 46.2517 47.4298C46.2517 45.6881 46.2665 43.9447 46.2467 42.203C46.2418 41.8339 46.3588 41.7449 46.6982 41.7812C46.9849 41.8108 47.2815 41.8076 47.5683 41.7779C47.8929 41.7449 48.0049 41.8389 48.0033 42.1832C47.9884 44.243 47.995 46.3011 47.995 48.3608C47.995 48.7546 47.995 49.1484 47.995 49.6329V49.6296Z" fill="black"/>
<path d="M53.7158 45.6813C53.7158 44.5064 53.7257 43.3315 53.7092 42.1567C53.7042 41.8568 53.7916 41.7563 54.0882 41.7777C54.4161 41.8007 54.7506 41.809 55.0785 41.7793C55.3833 41.753 55.4657 41.8568 55.4641 42.1517C55.4558 44.3564 55.4591 46.5612 55.4624 48.7643C55.4624 49.603 55.4657 49.603 54.6435 49.6162C54.0261 49.626 53.7158 49.3174 53.7125 48.6901C53.7092 47.6866 53.7125 46.6831 53.7125 45.6813H53.7174H53.7158Z" fill="black"/>
<path d="M55.6319 39.4165C55.6286 39.9636 55.1425 40.4233 54.5741 40.4134C53.9743 40.4052 53.564 39.9867 53.564 39.3902C53.564 38.8415 54.0188 38.385 54.5625 38.385C55.1607 38.385 55.6336 38.8414 55.6303 39.4165H55.6319Z" fill="black"/>
<path d="M48.1616 39.4034C48.16 39.9439 47.6607 40.4185 47.0972 40.4168C46.5369 40.4135 46.0871 39.939 46.0953 39.3573C46.1036 38.8399 46.5831 38.3802 47.1054 38.39C47.6904 38.4016 48.1633 38.8564 48.1616 39.4051V39.4034Z" fill="black"/>
</svg>
