<svg width="97" height="42" viewBox="0 0 97 42" fill="none" xmlns="http://www.w3.org/2000/svg">
<path d="M37.5264 0.627197H52.2871C59.3553 0.627197 64.4494 4.36943 64.4494 10.9183C64.5155 12.7197 64.0603 14.5018 63.1384 16.0508C62.2165 17.5997 60.8672 18.8497 59.2523 19.6506V19.7547C61.315 20.3965 63.1069 21.7034 64.3482 23.4714C65.5895 25.2393 66.2103 27.3686 66.1135 29.5266C66.1135 37.1151 59.9809 41.0655 52.5994 41.0655H37.5264V0.627197ZM52.2871 17.7795C53.111 17.8326 53.9368 17.7112 54.7106 17.4232C55.4843 17.1352 56.1886 16.6871 56.7773 16.1083C57.3659 15.5294 57.8258 14.8328 58.1268 14.064C58.4277 13.2952 58.563 12.4716 58.5238 11.6469C58.5238 8.11282 56.2363 5.72131 52.183 5.72131H43.4519V17.8835H52.2883L52.2871 17.7795ZM52.9104 36.2825C57.4841 36.2825 60.0826 33.4758 60.0826 29.4213C60.0826 25.3668 57.276 22.4561 52.8064 22.4561H43.3479V36.2825H52.9104Z" fill="#1B365D"/>
<path d="M94.8037 9.04617V3.01767C91.0789 0.977034 86.8882 -0.0617859 82.6415 0.00284141C75.5734 0.00284141 69.2314 3.53691 69.2314 11.4377C69.2314 20.481 78.4829 22.3521 82.6415 23.3918C87.5274 24.6396 91.0615 26.1984 91.0615 30.357C91.0615 34.3074 88.3589 36.8018 82.6415 36.8018C78.1148 36.6822 73.7301 35.1967 70.0629 32.5404V38.777C73.9558 40.8906 78.3148 41.9984 82.7444 42C90.6452 42 96.7778 38.0496 96.7778 30.15C96.7778 22.0422 89.2933 19.2356 82.7444 17.7796C76.1955 16.3236 74.9477 13.7251 74.9477 11.2307C74.9477 9.2555 75.8833 5.30511 82.7444 5.30511C87.0554 5.26795 91.2707 6.57564 94.8037 9.04617Z" fill="#1B365D"/>
<path d="M23.4927 0.627197H29.5223V22.3532H23.4927V0.627197Z" fill="#1B365D"/>
<path d="M14.7608 35.8673C13.6136 35.8691 12.4773 35.6445 11.4171 35.2063C10.3568 34.7681 9.39355 34.1249 8.58241 33.3137C7.77127 32.5024 7.12823 31.5391 6.69018 30.4788C6.25212 29.4185 6.02766 28.2822 6.02967 27.135H0C0.0345208 30.9997 1.59397 34.6943 4.33899 37.4149C7.08401 40.1355 10.7924 41.6619 14.6573 41.6619C18.5221 41.6619 22.2305 40.1355 24.9755 37.4149C27.7205 34.6943 29.28 30.9997 29.3145 27.135H23.2848C23.3273 28.2756 23.1374 29.4128 22.7267 30.4777C22.316 31.5426 21.6931 32.5129 20.8959 33.3296C20.0986 34.1463 19.1437 34.7924 18.089 35.2286C17.0343 35.6649 15.902 35.8822 14.7608 35.8673Z" fill="#FFCD00"/>
</svg>
