<svg width="259" height="60" viewBox="0 0 259 60" fill="none" xmlns="http://www.w3.org/2000/svg">
<g clip-path="url(#clip0_21_41)">
<mask id="mask0_21_41" style="mask-type:luminance" maskUnits="userSpaceOnUse" x="0" y="0" width="49" height="59">
<path fill-rule="evenodd" clip-rule="evenodd" d="M0 0H48.0872V58.7137H0V0Z" fill="white"/>
</mask>
<g mask="url(#mask0_21_41)">
<path fill-rule="evenodd" clip-rule="evenodd" d="M20.6946 5.78128C23.3452 6.80628 25.8475 8.21128 27.8731 9.59378C29.9926 10.4813 33.2632 11.8463 33.2632 11.7788C32.6802 14.9038 32.112 16.6663 31.2499 19.1338C30.6225 20.9363 29.4121 24.7088 28.9205 26.8838C29.8666 28.1713 31.7637 30.5088 31.7637 30.5738C33.4484 32.9888 35.0936 38.6913 34.6366 42.0763C35.6963 45.7963 39.7697 50.5988 48.087 53.2213C47.4546 53.7438 42.3561 58.4788 42.2844 58.4113C36.803 52.0238 31.6526 48.1163 30.2989 45.8438C30.0469 41.9563 29.6838 37.9988 29.0168 34.5863C28.2436 33.4863 27.2679 31.7763 27.2679 31.7763L25.4251 39.7063L11.8191 58.7138C11.8191 58.7138 1.35271 53.1838 1.32801 53.1513C4.06008 51.5713 7.40972 50.6238 9.81819 49.1788C11.9599 45.8813 14.9365 42.5413 18.0712 39.6513C19.6151 37.6013 20.6304 36.1238 21.8334 34.5588C22.1866 31.5588 24.7433 19.8738 25.0892 16.5713C21.8902 18.8588 17.0757 20.3763 12.3798 20.4163C7.68391 20.4588 4.16877 19.8238 -0.000976562 18.3763C-0.000976562 18.3763 0.683277 15.9588 0.749974 15.8313C6.92308 16.8888 14.314 15.2913 19.3656 12.0938C13.8422 11.1688 7.97293 8.52378 3.28196 2.76628C3.31654 2.76628 3.06458 -0.0012207 3.06458 -0.0012207C3.06458 -0.0012207 6.79216 1.48628 6.75758 1.42378C10.8162 4.70128 16.1469 5.43128 20.6946 5.78128Z" fill="#0075C1"/>
</g>
<path fill-rule="evenodd" clip-rule="evenodd" d="M31.4395 4.98453C31.6867 3.42178 32.3289 2.05335 33.2739 1.66745C34.3459 1.22955 35.2862 1.64008 35.9308 3.0222C35.5657 4.39337 35.0829 6.07106 34.3967 7.1877C33.7521 7.45044 33.2184 7.60644 32.6154 7.41486C32.1418 7.2616 31.652 5.9178 31.4395 4.98453Z" fill="#0075C1"/>
<path fill-rule="evenodd" clip-rule="evenodd" d="M47.9132 17.061C47.8491 16.3055 48.354 15.2067 48.9996 15.0427C49.6432 14.8765 50.2288 15.2197 50.5847 15.6557C50.9427 16.0616 50.9468 16.802 50.8434 17.2855C50.4937 17.5899 50.3198 17.7453 49.8563 17.987L48.9686 18C48.4595 17.7129 48.1719 17.4366 47.9132 17.061Z" fill="#E5A600"/>
<path fill-rule="evenodd" clip-rule="evenodd" d="M41.9678 20.592C43.4391 20.0473 44.9177 19.7876 46.5999 19.8767C46.9383 19.7978 47.7377 19.5458 47.7156 19.5C51.1952 19.6222 55.0893 20.7142 58.5296 23.2165C61.9381 25.7112 65.5207 31.1765 64.0273 38.8871C60.6654 29.9394 55.8175 25.7443 51.7985 23.9751C51.6783 23.8351 51.156 23.3794 51.156 23.3794C51.156 23.3794 51.0064 24.6039 50.9868 24.8661C51.9775 29.2368 52.284 32.4111 52.7376 36.3415C53.0196 37.1942 54.6699 40.5213 54.6699 40.5213C54.6699 40.5213 57.0289 44.0316 57.9264 45.6455C58.9514 47.4529 62.0313 53.3713 63.402 55.8482C62.046 56.3802 56.872 58.325 56.872 58.325L54.4076 50.5916C54.4076 50.5916 51.6072 43.6447 50.8225 41.8857C49.7926 38.6198 48.8117 35.2927 47.9412 33.0246C47.9412 33.0246 46.1242 33.2537 46.0997 33.2766C46.4111 35.0611 46.3179 36.3109 45.7245 38.4161C45.0477 40.814 42.6103 44.6349 40.4867 47.8322C40.4377 49.6752 40.2047 53.0786 40.1287 54.6059C39.5328 55.3798 38.9247 56.5228 38.9247 56.5228L34.8933 60C35.2759 51.5691 36.8894 47.1016 39.1944 42.3312C41.8624 39.6864 43.8805 37.1739 43.2454 33.6915C41.8476 30.6445 41.4479 27.7324 41.242 24.721C40.1826 27.4778 39.626 31.314 39.4887 33.8901C37.7378 36.2473 36.5363 39.61 35.6854 42.3312C35.7025 42.3312 32.9365 40.3788 32.9365 40.3788C33.5888 35.7713 34.5697 32.7344 35.4966 30.1608C37.397 26.508 40.2881 22.4223 41.9678 20.592Z" fill="#E5A600"/>
<path fill-rule="evenodd" clip-rule="evenodd" d="M72.1885 38.983L71.8613 38.1057C74.5421 35.4923 79.5081 32.2825 81.6183 31.1401C82.3842 30.1859 82.3995 28.5585 82.4679 27.7554C83.939 27.2412 85.6154 27.0424 86.8075 27C86.8962 28.813 86.8962 32.2613 84.1393 33.8012C82.0875 36.9183 78.6636 39.2216 72.1885 38.983Z" fill="#E7390E"/>
<path fill-rule="evenodd" clip-rule="evenodd" d="M67.8893 38.8063L71.9433 37.9478C71.7595 39.9543 71.6726 41.0424 71.6999 41.8387C71.7173 42.6399 71.6477 43.8428 71.5335 44.8496C71.5136 44.8329 86.0258 46.1602 86.0258 46.1602C86.0258 46.1602 87.7622 45.8038 88.7385 45.4355C88.972 46.2319 89.8265 48.8195 89.8265 48.8195L86.4854 49.0491C82.6921 47.6262 79.7609 47.5688 77.7711 47.7099C75.9502 48.2001 74.1492 48.4727 71.9632 48.609C70.1995 49.6972 67.5291 51.0723 65.2934 51.6415C63.3483 51.7921 61.9895 51.9093 61.2616 51.9906C60.5363 52.0695 59.0185 52.4187 58.4695 52.5C58.4894 51.3664 58.4695 49.7163 58.4695 49.7163C58.4695 49.7163 59.1551 49.7163 59.9202 49.6613C60.6977 49.6015 64.1705 49.0347 65.3977 48.6234C67.3577 47.4037 69.1263 46.7054 70.7435 45.9617C70.6988 45.6867 70.6392 45.1844 70.6392 45.1844L69.8691 45.316C69.8691 45.316 68.8779 43.5319 68.4904 42.5012C68.1079 41.4705 67.9489 40.808 67.8048 40.0523C67.5862 39.9543 65.9218 39.2129 65.9218 39.2129C63.6737 39.3875 62.0913 39.6003 61.0679 40.1695C60.3897 40.8415 58.6136 43.1062 58.6136 43.1062C58.0695 41.8387 58.6136 39.4473 59.1178 38.395C59.6494 37.2662 61.7734 35.9222 63.1868 36.0035C65.1617 36.1231 66.0237 36.6899 67.8893 38.8063Z" fill="#E7390E"/>
<path fill-rule="evenodd" clip-rule="evenodd" d="M69.1922 36L68.4465 35.8091L67.3696 34.0646C67.673 33.1364 68.3327 32.9916 68.9799 33.0004C69.627 33.0004 70.1856 33.5533 70.2867 34.0141C70.3954 34.4618 70.3752 34.7931 70.312 35.0806C70.034 35.5107 69.7003 35.7433 69.1922 36Z" fill="#E7390E"/>
<path fill-rule="evenodd" clip-rule="evenodd" d="M137.963 38.5978C137.963 38.615 138.941 36.1821 138.941 36.1821C140.95 36.3145 142.894 36.3758 144.709 36.2262C144.709 31.7823 143.267 28.8909 140.542 28.8909C138.399 28.8909 136.127 31.1766 136.127 37.2097C136.127 42.0975 138.724 47.9516 144.765 47.9516C146.854 47.9516 148.32 47.4537 149.684 46.6885L148.994 49.1925C148.994 49.1925 146.236 51 142.24 51C134.886 51 130.249 46.0362 130.249 38.7425C130.249 31.6352 135.734 27 141.139 27C147.204 27 151.208 31.9589 151.208 38.5978C149.227 38.5193 147.051 38.4703 145.016 38.4703C142.779 38.4703 140.626 38.5389 137.963 38.5978Z" fill="#231916"/>
<path fill-rule="evenodd" clip-rule="evenodd" d="M151.223 30.5737C151.223 30.5964 151.904 28.7982 151.904 28.7982C154.332 28.6397 157.966 27.9079 160.156 27.1886C160.053 28.5718 159.996 29.0949 159.996 30.5737C161.995 28.8032 164.423 27 167.088 27C169.951 27 173.492 28.9591 173.274 35.0252C173.153 38.6467 173.093 42.6781 173.093 45.9098C173.093 48.0299 174.143 49.2194 176.657 49.3452C176.7 49.3628 176.027 51 176.027 51C173.467 50.7862 169.851 50.7711 167.623 50.9975C167.623 47.1823 167.741 41.4282 167.741 36.9264C167.741 33.6042 167.455 30.8302 164.157 30.9409C162.196 31.0138 160.955 32.1556 160.053 33.3779C159.905 37.5149 159.905 43.1232 159.996 46.8453C160.028 48.3141 160.812 49.1289 163.047 49.3452C163.032 49.3452 162.372 51 162.372 51C159.026 50.7586 154.616 50.7862 151.519 50.9774L151.208 49.3024C153.245 49.0333 154.244 48.397 154.43 46.8453C154.694 44.7554 154.809 41.398 154.809 38.2971C154.809 34.6705 154.717 32.9755 154.398 32.0701C154.059 31.0893 152.941 30.4756 151.223 30.5737Z" fill="#231916"/>
<path fill-rule="evenodd" clip-rule="evenodd" d="M215.072 27.3207V33.1524L213.47 33.6984C212.805 30.687 211.118 28.7578 208.15 28.7578C205.178 28.7578 204.221 30.7384 204.221 32.0238C204.221 33.2381 204.829 34.3937 206.583 35.0057C208.307 35.608 211.359 36.6779 212.836 37.263C214.59 37.9607 217.081 39.7186 217.081 43.173C217.081 46.674 214.08 51 206.599 51C204.614 51 201.511 50.6279 199.115 50.6279V43.6847L200.875 43.0775C201.193 46.2235 203.388 49.1149 207.122 49.1149C210.851 49.1149 211.72 46.4316 211.72 45.2467C211.72 43.8071 210.777 42.8107 209.202 42.1007C207.438 41.3148 204.068 40.2449 202.401 39.3073C200.746 38.3598 199.338 36.6779 199.338 34.0705C199.338 31.3187 201.603 27 208.712 27C210.692 27 213.195 27.3574 215.072 27.3207Z" fill="#231916"/>
<path fill-rule="evenodd" clip-rule="evenodd" d="M184.383 38.5978C184.386 38.615 185.354 36.1821 185.354 36.1821C187.358 36.3145 189.294 36.3758 191.122 36.2262C191.122 31.7823 189.695 28.8909 186.957 28.8909C184.807 28.8909 182.545 31.1766 182.545 37.2097C182.545 42.0975 185.139 47.9516 191.178 47.9516C193.28 47.9516 194.74 47.4537 196.119 46.6885L195.404 49.1925C195.404 49.1925 192.634 51 188.65 51C181.298 51 176.659 46.0362 176.659 38.7425C176.659 31.6352 182.144 27 187.547 27C193.614 27 197.618 31.9589 197.618 38.5978C195.632 38.5193 193.469 38.4703 191.436 38.4703C189.215 38.4703 187.054 38.5389 184.383 38.5978Z" fill="#231916"/>
<path fill-rule="evenodd" clip-rule="evenodd" d="M234.525 27.3207V33.1524L232.938 33.6984C232.264 30.687 230.574 28.7578 227.615 28.7578C224.646 28.7578 223.698 30.7384 223.698 32.0238C223.698 33.2381 224.29 34.3937 226.051 35.0057C227.774 35.608 230.833 36.6779 232.297 37.263C234.061 37.9607 236.543 39.7186 236.543 43.173C236.543 46.674 233.548 51 226.085 51C224.067 51 220.985 50.6279 218.578 50.6279V43.6847L220.334 43.0775C220.66 46.2235 222.862 49.1149 226.592 49.1149C230.315 49.1149 231.197 46.4316 231.197 45.2467C231.197 43.8071 230.231 42.8107 228.674 42.1007C226.908 41.3148 223.523 40.2449 221.862 39.3073C220.213 38.3598 218.811 36.6779 218.811 34.0705C218.811 31.3187 221.08 27 228.192 27C230.167 27 232.656 27.3574 234.525 27.3207Z" fill="#231916"/>
<path fill-rule="evenodd" clip-rule="evenodd" d="M245.747 38.5978C245.747 38.615 246.73 36.1821 246.73 36.1821C248.721 36.3145 250.687 36.3758 252.492 36.2262C252.492 31.7823 251.05 28.8909 248.331 28.8909C246.174 28.8909 243.914 31.1766 243.914 37.2097C243.914 42.0975 246.526 47.9516 252.548 47.9516C254.652 47.9516 256.112 47.4537 257.481 46.6885L256.776 49.1925C256.776 49.1925 254.006 51 250.029 51C242.669 51 238.04 46.0362 238.04 38.7425C238.04 31.6352 243.524 27 248.921 27C254.994 27 259 31.9589 259 38.5978C257.006 38.5193 254.841 38.4703 252.801 38.4703C250.567 38.4703 248.415 38.5389 245.747 38.5978Z" fill="#231916"/>
<path fill-rule="evenodd" clip-rule="evenodd" d="M99.5525 21.7308L100.431 19.639C103.726 19.639 103.945 19.7804 106.093 19.7804C108.255 19.7804 114.251 19.5 116.459 19.5C122.86 19.5 126.778 21.3164 126.778 26.0459C126.778 29.5298 122.195 32.0013 119.802 33.0187L119.827 33.1651C124.377 33.8524 128.751 35.8623 128.751 41.118C128.751 46.6391 123.234 51.0808 114.872 50.9989C111.458 50.9517 108.999 50.7632 105.999 50.7632C102.997 50.7632 99.2496 50.8351 99.2496 50.8351L98.8091 48.9865C101.376 48.8053 103.751 48.1229 104.031 44.4728C104.324 40.84 104.38 36.9492 104.38 33.5695C104.38 30.2097 104.242 27.4033 104.176 25.5894C104.031 22.9268 103.316 21.5968 99.5525 21.7308ZM113.862 21.371C116.459 21.3139 119.784 22.4851 119.802 26.2023C119.812 29.0509 117.172 32.3685 112.423 33.0931L113.172 35.0187C117.22 34.1353 121.928 35.8251 121.928 41.381C121.928 47.0609 117.039 49.1105 114.712 49.1105C112.393 49.1105 110.692 48.2644 110.552 45.7061C110.394 43.1626 110.351 38.9269 110.351 33.8102C110.351 28.6936 110.491 25.4827 110.59 23.7407C110.717 21.6787 111.471 21.438 113.862 21.371Z" fill="#231916"/>
</g>
<defs>
<clipPath id="clip0_21_41">
<rect width="259" height="60" fill="white"/>
</clipPath>
</defs>
</svg>
